<svg xmlns="http://www.w3.org/2000/svg" xmlns:xlink="http://www.w3.org/1999/xlink" contentStyleType="text/css" data-diagram-type="ACTIVITY" height="737px" preserveAspectRatio="none" style="width:211px;height:737px;background:#FFFFFF;" version="1.1" viewBox="0 0 211 737" width="211px" zoomAndPan="magnify"><defs/><g><ellipse cx="103.749" cy="20" fill="#222222" rx="10" ry="10" style="stroke:#222222;stroke-width:1;"/><rect fill="#F1F1F1" height="33.9688" rx="12.5" ry="12.5" style="stroke:#181818;stroke-width:0.5;" width="79.3086" x="64.0947" y="50"/><text fill="#000000" font-family="sans-serif" font-size="12" lengthAdjust="spacing" textLength="59.3086" x="74.0947" y="71.1387">Open App</text><rect fill="#F1F1F1" height="33.9688" rx="12.5" ry="12.5" style="stroke:#181818;stroke-width:0.5;" width="185.498" x="11" y="103.9688"/><text fill="#000000" font-family="sans-serif" font-size="12" lengthAdjust="spacing" textLength="165.498" x="21" y="125.1074">Select Category or Random</text><rect fill="#F1F1F1" height="33.9688" rx="12.5" ry="12.5" style="stroke:#181818;stroke-width:0.5;" width="142.0625" x="32.7178" y="157.9375"/><text fill="#000000" font-family="sans-serif" font-size="12" lengthAdjust="spacing" textLength="122.0625" x="42.7178" y="179.0762">Fetch Recipe via API</text><rect fill="#F1F1F1" height="33.9688" rx="12.5" ry="12.5" style="stroke:#181818;stroke-width:0.5;" width="108.6992" x="49.3994" y="211.9063"/><text fill="#000000" font-family="sans-serif" font-size="12" lengthAdjust="spacing" textLength="88.6992" x="59.3994" y="233.0449">Display Recipe</text><rect fill="#F1F1F1" height="33.9688" rx="12.5" ry="12.5" style="stroke:#181818;stroke-width:0.5;" width="144.043" x="31.7275" y="314.2773"/><text fill="#000000" font-family="sans-serif" font-size="12" lengthAdjust="spacing" textLength="124.043" x="41.7275" y="335.416">Save to localStorage</text><polygon fill="#F1F1F1" points="87.3296,265.875,120.1685,265.875,132.1685,277.875,120.1685,289.875,87.3296,289.875,75.3296,277.875,87.3296,265.875" style="stroke:#181818;stroke-width:0.5;"/><text fill="#000000" font-family="sans-serif" font-size="11" lengthAdjust="spacing" textLength="19.0083" x="107.749" y="300.0854">yes</text><text fill="#000000" font-family="sans-serif" font-size="11" lengthAdjust="spacing" textLength="32.8389" x="87.3296" y="281.6831">Save?</text><polygon fill="#F1F1F1" points="103.749,368.2461,115.749,380.2461,103.749,392.2461,91.749,380.2461,103.749,368.2461" style="stroke:#181818;stroke-width:0.5;"/><rect fill="#F1F1F1" height="33.9688" rx="12.5" ry="12.5" style="stroke:#181818;stroke-width:0.5;" width="134.6035" x="36.4473" y="460.6484"/><text fill="#000000" font-family="sans-serif" font-size="12" lengthAdjust="spacing" textLength="114.6035" x="46.4473" y="481.7871">Use Web Share API</text><polygon fill="#F1F1F1" points="84.8374,412.2461,122.6606,412.2461,134.6606,424.2461,122.6606,436.2461,84.8374,436.2461,72.8374,424.2461,84.8374,412.2461" style="stroke:#181818;stroke-width:0.5;"/><text fill="#000000" font-family="sans-serif" font-size="11" lengthAdjust="spacing" textLength="19.0083" x="107.749" y="446.4565">yes</text><text fill="#000000" font-family="sans-serif" font-size="11" lengthAdjust="spacing" textLength="37.8232" x="84.8374" y="428.0542">Share?</text><polygon fill="#F1F1F1" points="103.749,514.6172,115.749,526.6172,103.749,538.6172,91.749,526.6172,103.749,514.6172" style="stroke:#181818;stroke-width:0.5;"/><rect fill="#F1F1F1" height="33.9688" rx="12.5" ry="12.5" style="stroke:#181818;stroke-width:0.5;" width="111.1484" x="48.1748" y="607.0195"/><text fill="#000000" font-family="sans-serif" font-size="12" lengthAdjust="spacing" textLength="91.1484" x="58.1748" y="628.1582">Change Theme</text><polygon fill="#F1F1F1" points="61.4919,558.6172,146.0061,558.6172,158.0061,570.6172,146.0061,582.6172,61.4919,582.6172,49.4919,570.6172,61.4919,558.6172" style="stroke:#181818;stroke-width:0.5;"/><text fill="#000000" font-family="sans-serif" font-size="11" lengthAdjust="spacing" textLength="19.0083" x="107.749" y="592.8276">yes</text><text fill="#000000" font-family="sans-serif" font-size="11" lengthAdjust="spacing" textLength="84.5142" x="61.4919" y="574.4253">Toggle Theme?</text><polygon fill="#F1F1F1" points="103.749,660.9883,115.749,672.9883,103.749,684.9883,91.749,672.9883,103.749,660.9883" style="stroke:#181818;stroke-width:0.5;"/><ellipse cx="103.749" cy="715.9883" fill="transparent" rx="11" ry="11" style="stroke:#222222;stroke-width:1;"/><ellipse cx="103.749" cy="715.9883" fill="#222222" rx="6" ry="6" style="stroke:#222222;stroke-width:1;"/><line style="stroke:#181818;stroke-width:1;" x1="103.749" x2="103.749" y1="30" y2="50"/><polygon fill="#181818" points="99.749,40,103.749,50,107.749,40,103.749,44" style="stroke:#181818;stroke-width:1;"/><line style="stroke:#181818;stroke-width:1;" x1="103.749" x2="103.749" y1="83.9688" y2="103.9688"/><polygon fill="#181818" points="99.749,93.9688,103.749,103.9688,107.749,93.9688,103.749,97.9688" style="stroke:#181818;stroke-width:1;"/><line style="stroke:#181818;stroke-width:1;" x1="103.749" x2="103.749" y1="137.9375" y2="157.9375"/><polygon fill="#181818" points="99.749,147.9375,103.749,157.9375,107.749,147.9375,103.749,151.9375" style="stroke:#181818;stroke-width:1;"/><line style="stroke:#181818;stroke-width:1;" x1="103.749" x2="103.749" y1="191.9063" y2="211.9063"/><polygon fill="#181818" points="99.749,201.9063,103.749,211.9063,107.749,201.9063,103.749,205.9063" style="stroke:#181818;stroke-width:1;"/><line style="stroke:#181818;stroke-width:1;" x1="103.749" x2="103.749" y1="289.875" y2="314.2773"/><polygon fill="#181818" points="99.749,304.2773,103.749,314.2773,107.749,304.2773,103.749,308.2773" style="stroke:#181818;stroke-width:1;"/><line style="stroke:#181818;stroke-width:1;" x1="132.1685" x2="185.7705" y1="277.875" y2="277.875"/><polygon fill="#181818" points="181.7705,321.2617,185.7705,331.2617,189.7705,321.2617,185.7705,325.2617" style="stroke:#181818;stroke-width:1;"/><line style="stroke:#181818;stroke-width:1;" x1="185.7705" x2="185.7705" y1="277.875" y2="380.2461"/><line style="stroke:#181818;stroke-width:1;" x1="185.7705" x2="115.749" y1="380.2461" y2="380.2461"/><polygon fill="#181818" points="125.749,376.2461,115.749,380.2461,125.749,384.2461,121.749,380.2461" style="stroke:#181818;stroke-width:1;"/><line style="stroke:#181818;stroke-width:1;" x1="103.749" x2="103.749" y1="348.2461" y2="368.2461"/><polygon fill="#181818" points="99.749,358.2461,103.749,368.2461,107.749,358.2461,103.749,362.2461" style="stroke:#181818;stroke-width:1;"/><line style="stroke:#181818;stroke-width:1;" x1="103.749" x2="103.749" y1="245.875" y2="265.875"/><polygon fill="#181818" points="99.749,255.875,103.749,265.875,107.749,255.875,103.749,259.875" style="stroke:#181818;stroke-width:1;"/><line style="stroke:#181818;stroke-width:1;" x1="103.749" x2="103.749" y1="436.2461" y2="460.6484"/><polygon fill="#181818" points="99.749,450.6484,103.749,460.6484,107.749,450.6484,103.749,454.6484" style="stroke:#181818;stroke-width:1;"/><line style="stroke:#181818;stroke-width:1;" x1="134.6606" x2="181.0508" y1="424.2461" y2="424.2461"/><polygon fill="#181818" points="177.0508,467.6328,181.0508,477.6328,185.0508,467.6328,181.0508,471.6328" style="stroke:#181818;stroke-width:1;"/><line style="stroke:#181818;stroke-width:1;" x1="181.0508" x2="181.0508" y1="424.2461" y2="526.6172"/><line style="stroke:#181818;stroke-width:1;" x1="181.0508" x2="115.749" y1="526.6172" y2="526.6172"/><polygon fill="#181818" points="125.749,522.6172,115.749,526.6172,125.749,530.6172,121.749,526.6172" style="stroke:#181818;stroke-width:1;"/><line style="stroke:#181818;stroke-width:1;" x1="103.749" x2="103.749" y1="494.6172" y2="514.6172"/><polygon fill="#181818" points="99.749,504.6172,103.749,514.6172,107.749,504.6172,103.749,508.6172" style="stroke:#181818;stroke-width:1;"/><line style="stroke:#181818;stroke-width:1;" x1="103.749" x2="103.749" y1="392.2461" y2="412.2461"/><polygon fill="#181818" points="99.749,402.2461,103.749,412.2461,107.749,402.2461,103.749,406.2461" style="stroke:#181818;stroke-width:1;"/><line style="stroke:#181818;stroke-width:1;" x1="103.749" x2="103.749" y1="582.6172" y2="607.0195"/><polygon fill="#181818" points="99.749,597.0195,103.749,607.0195,107.749,597.0195,103.749,601.0195" style="stroke:#181818;stroke-width:1;"/><line style="stroke:#181818;stroke-width:1;" x1="158.0061" x2="170.0061" y1="570.6172" y2="570.6172"/><polygon fill="#181818" points="166.0061,614.0039,170.0061,624.0039,174.0061,614.0039,170.0061,618.0039" style="stroke:#181818;stroke-width:1;"/><line style="stroke:#181818;stroke-width:1;" x1="170.0061" x2="170.0061" y1="570.6172" y2="672.9883"/><line style="stroke:#181818;stroke-width:1;" x1="170.0061" x2="115.749" y1="672.9883" y2="672.9883"/><polygon fill="#181818" points="125.749,668.9883,115.749,672.9883,125.749,676.9883,121.749,672.9883" style="stroke:#181818;stroke-width:1;"/><line style="stroke:#181818;stroke-width:1;" x1="103.749" x2="103.749" y1="640.9883" y2="660.9883"/><polygon fill="#181818" points="99.749,650.9883,103.749,660.9883,107.749,650.9883,103.749,654.9883" style="stroke:#181818;stroke-width:1;"/><line style="stroke:#181818;stroke-width:1;" x1="103.749" x2="103.749" y1="538.6172" y2="558.6172"/><polygon fill="#181818" points="99.749,548.6172,103.749,558.6172,107.749,548.6172,103.749,552.6172" style="stroke:#181818;stroke-width:1;"/><line style="stroke:#181818;stroke-width:1;" x1="103.749" x2="103.749" y1="684.9883" y2="704.9883"/><polygon fill="#181818" points="99.749,694.9883,103.749,704.9883,107.749,694.9883,103.749,698.9883" style="stroke:#181818;stroke-width:1;"/><!--SRC=[POt12eCm44Jl-OezwY_eeOYbq5EBMdhUfciIYDcGB89_NzjAANYTDsyc2oPHrILIW2R6MbKzUT82BGePJWjmWWx3awULdKYqXOwqYmIpGsYkvpK-kXmzBXkebN8Z53tET2X1xBfSB9HB1L2zGn06pnfzBvpGh7qAJpTkbiMqrswPu4uF-D3lwPypi36UOB0qxTNMOZ0R_5bPEBu0]--></g></svg>