<svg xmlns="http://www.w3.org/2000/svg" xmlns:xlink="http://www.w3.org/1999/xlink" contentStyleType="text/css" data-diagram-type="CLASS" height="50px" preserveAspectRatio="none" style="width:540px;height:50px;background:#FFFFFF;" version="1.1" viewBox="0 0 540 50" width="540px" zoomAndPan="magnify"><defs/><g><g id="elem_User"><rect fill="#F1F1F1" height="36.2969" rx="2.5" ry="2.5" style="stroke:#181818;stroke-width:0.5;" width="45.9102" x="7" y="8.5659"/><text fill="#000000" font-family="sans-serif" font-size="14" lengthAdjust="spacing" textLength="31.9102" x="14" y="23.561">User</text><line style="stroke:#181818;stroke-width:0.5;" x1="8" x2="51.9102" y1="28.8628" y2="28.8628"/></g><g id="elem_UI"><rect fill="#F1F1F1" height="36.2969" rx="2.5" ry="2.5" style="stroke:#181818;stroke-width:0.5;" width="28.376" x="160" y="8.5659"/><text fill="#000000" font-family="sans-serif" font-size="14" lengthAdjust="spacing" textLength="14.376" x="167" y="23.561">UI</text><line style="stroke:#181818;stroke-width:0.5;" x1="161" x2="187.376" y1="28.8628" y2="28.8628"/></g><g id="elem_WebShareAPI"><rect fill="#F1F1F1" height="36.2969" rx="2.5" ry="2.5" style="stroke:#181818;stroke-width:0.5;" width="108.1992" x="426" y="8.5659"/><text fill="#000000" font-family="sans-serif" font-size="14" lengthAdjust="spacing" textLength="94.1992" x="433" y="23.561">WebShareAPI</text><line style="stroke:#181818;stroke-width:0.5;" x1="427" x2="533.1992" y1="28.8628" y2="28.8628"/></g><!--link User to UI--><g id="link_User_UI"><path codeLine="5" d="M53.14,26.5659 C83.19,26.5659 128.74,26.5659 153.67,26.5659 " fill="transparent" id="User-to-UI" style="stroke:#181818;stroke-width:1;"/><polygon fill="#181818" points="159.67,26.5659,150.67,22.5659,154.67,26.5659,150.67,30.5659,159.67,26.5659" style="stroke:#181818;stroke-width:1;"/><text fill="#000000" font-family="sans-serif" font-size="13" lengthAdjust="spacing" textLength="70.9795" x="71.5" y="19.6328">click Share</text></g><!--link UI to WebShareAPI--><g id="link_UI_WebShareAPI"><path codeLine="6" d="M188.35,26.5659 C230.18,26.5659 347.59,26.5659 419.77,26.5659 " fill="transparent" id="UI-to-WebShareAPI" style="stroke:#181818;stroke-width:1;"/><polygon fill="#181818" points="425.77,26.5659,416.77,22.5659,420.77,26.5659,416.77,30.5659,425.77,26.5659" style="stroke:#181818;stroke-width:1;"/><text fill="#000000" font-family="sans-serif" font-size="13" lengthAdjust="spacing" textLength="201.7793" x="206.5" y="19.6328">share(name, instructions, URL)</text></g><!--SRC=[oq_AIaqkKGWjJYtYoeUoFM6iyDIau8p4ebJ704ykBf0I1LqxeBI2bK9oJcPojW9OaWie01H6KWkKBmOnDV8ISrDr53BpYakAIfDBClFpYdKKGeDyD040]--></g></svg>