<svg xmlns="http://www.w3.org/2000/svg" xmlns:xlink="http://www.w3.org/1999/xlink" contentStyleType="text/css" data-diagram-type="DESCRIPTION" height="305px" preserveAspectRatio="none" style="width:696px;height:305px;background:#FFFFFF;" version="1.1" viewBox="0 0 696 305" width="696px" zoomAndPan="magnify"><defs/><g><!--cluster ZaikaWay Frontend--><g id="cluster_ZaikaWay Frontend"><path d="M8.5,6 L163.7734,6 A3.75,3.75 0 0 1 166.2734,8.5 L173.2734,28.2969 L686.5,28.2969 A2.5,2.5 0 0 1 689,30.7969 L689,206.5 A2.5,2.5 0 0 1 686.5,209 L8.5,209 A2.5,2.5 0 0 1 6,206.5 L6,8.5 A2.5,2.5 0 0 1 8.5,6 " fill="transparent" style="stroke:#000000;stroke-width:1.5;"/><line style="stroke:#000000;stroke-width:1.5;" x1="6" x2="173.2734" y1="28.2969" y2="28.2969"/><text fill="#000000" font-family="sans-serif" font-size="14" font-weight="bold" lengthAdjust="spacing" textLength="154.2734" x="10" y="20.9951">ZaikaWay Frontend</text></g><!--entity HTML--><g id="elem_HTML"><rect fill="#F1F1F1" height="46.2969" rx="2.5" ry="2.5" style="stroke:#181818;stroke-width:0.5;" width="78.958" x="576.5" y="41"/><rect fill="#F1F1F1" height="10" style="stroke:#181818;stroke-width:0.5;" width="15" x="635.458" y="46"/><rect fill="#F1F1F1" height="2" style="stroke:#181818;stroke-width:0.5;" width="4" x="633.458" y="48"/><rect fill="#F1F1F1" height="2" style="stroke:#181818;stroke-width:0.5;" width="4" x="633.458" y="52"/><text fill="#000000" font-family="sans-serif" font-size="14" lengthAdjust="spacing" textLength="38.958" x="591.5" y="73.9951">HTML</text></g><!--entity CSS--><g id="elem_CSS"><rect fill="#F1F1F1" height="46.2969" rx="2.5" ry="2.5" style="stroke:#181818;stroke-width:0.5;" width="67.5488" x="437" y="41"/><rect fill="#F1F1F1" height="10" style="stroke:#181818;stroke-width:0.5;" width="15" x="484.5488" y="46"/><rect fill="#F1F1F1" height="2" style="stroke:#181818;stroke-width:0.5;" width="4" x="482.5488" y="48"/><rect fill="#F1F1F1" height="2" style="stroke:#181818;stroke-width:0.5;" width="4" x="482.5488" y="52"/><text fill="#000000" font-family="sans-serif" font-size="14" lengthAdjust="spacing" textLength="27.5488" x="452" y="73.9951">CSS</text></g><!--entity JavaScript--><g id="elem_JavaScript"><rect fill="#F1F1F1" height="46.2969" rx="2.5" ry="2.5" style="stroke:#181818;stroke-width:0.5;" width="110.1777" x="221" y="41"/><rect fill="#F1F1F1" height="10" style="stroke:#181818;stroke-width:0.5;" width="15" x="311.1777" y="46"/><rect fill="#F1F1F1" height="2" style="stroke:#181818;stroke-width:0.5;" width="4" x="309.1777" y="48"/><rect fill="#F1F1F1" height="2" style="stroke:#181818;stroke-width:0.5;" width="4" x="309.1777" y="52"/><text fill="#000000" font-family="sans-serif" font-size="14" lengthAdjust="spacing" textLength="70.1777" x="236" y="73.9951">JavaScript</text></g><!--entity RecipeCard--><g id="elem_RecipeCard"><rect fill="#F1F1F1" height="46.2969" rx="2.5" ry="2.5" style="stroke:#181818;stroke-width:0.5;" width="120.4248" x="22" y="147"/><rect fill="#F1F1F1" height="10" style="stroke:#181818;stroke-width:0.5;" width="15" x="122.4248" y="152"/><rect fill="#F1F1F1" height="2" style="stroke:#181818;stroke-width:0.5;" width="4" x="120.4248" y="154"/><rect fill="#F1F1F1" height="2" style="stroke:#181818;stroke-width:0.5;" width="4" x="120.4248" y="158"/><text fill="#000000" font-family="sans-serif" font-size="14" lengthAdjust="spacing" textLength="80.4248" x="37" y="179.9951">RecipeCard</text></g><!--entity CategorySelector--><g id="elem_CategorySelector"><rect fill="#F1F1F1" height="46.2969" rx="2.5" ry="2.5" style="stroke:#181818;stroke-width:0.5;" width="161.4609" x="177.5" y="147"/><rect fill="#F1F1F1" height="10" style="stroke:#181818;stroke-width:0.5;" width="15" x="318.9609" y="152"/><rect fill="#F1F1F1" height="2" style="stroke:#181818;stroke-width:0.5;" width="4" x="316.9609" y="154"/><rect fill="#F1F1F1" height="2" style="stroke:#181818;stroke-width:0.5;" width="4" x="316.9609" y="158"/><text fill="#000000" font-family="sans-serif" font-size="14" lengthAdjust="spacing" textLength="121.4609" x="192.5" y="179.9951">CategorySelector</text></g><!--entity SaveManager--><g id="elem_SaveManager"><rect fill="#F1F1F1" height="46.2969" rx="2.5" ry="2.5" style="stroke:#181818;stroke-width:0.5;" width="135.7305" x="374" y="147"/><rect fill="#F1F1F1" height="10" style="stroke:#181818;stroke-width:0.5;" width="15" x="489.7305" y="152"/><rect fill="#F1F1F1" height="2" style="stroke:#181818;stroke-width:0.5;" width="4" x="487.7305" y="154"/><rect fill="#F1F1F1" height="2" style="stroke:#181818;stroke-width:0.5;" width="4" x="487.7305" y="158"/><text fill="#000000" font-family="sans-serif" font-size="14" lengthAdjust="spacing" textLength="95.7305" x="389" y="179.9951">SaveManager</text></g><!--entity ShareButton--><g id="elem_ShareButton"><rect fill="#F1F1F1" height="46.2969" rx="2.5" ry="2.5" style="stroke:#181818;stroke-width:0.5;" width="127.6025" x="545" y="147"/><rect fill="#F1F1F1" height="10" style="stroke:#181818;stroke-width:0.5;" width="15" x="652.6025" y="152"/><rect fill="#F1F1F1" height="2" style="stroke:#181818;stroke-width:0.5;" width="4" x="650.6025" y="154"/><rect fill="#F1F1F1" height="2" style="stroke:#181818;stroke-width:0.5;" width="4" x="650.6025" y="158"/><text fill="#000000" font-family="sans-serif" font-size="14" lengthAdjust="spacing" textLength="87.6025" x="560" y="179.9951">ShareButton</text></g><!--entity TheMealDB API--><g id="elem_TheMealDB API"><rect fill="#F1F1F1" height="46.2969" rx="2.5" ry="2.5" style="stroke:#181818;stroke-width:0.5;" width="146.1826" x="9" y="253"/><rect fill="#F1F1F1" height="10" style="stroke:#181818;stroke-width:0.5;" width="15" x="135.1826" y="258"/><rect fill="#F1F1F1" height="2" style="stroke:#181818;stroke-width:0.5;" width="4" x="133.1826" y="260"/><rect fill="#F1F1F1" height="2" style="stroke:#181818;stroke-width:0.5;" width="4" x="133.1826" y="264"/><text fill="#000000" font-family="sans-serif" font-size="14" lengthAdjust="spacing" textLength="106.1826" x="24" y="285.9951">TheMealDB API</text></g><!--entity localStorage--><g id="elem_localStorage"><rect fill="#F1F1F1" height="46.2969" rx="2.5" ry="2.5" style="stroke:#181818;stroke-width:0.5;" width="127.3975" x="378.5" y="253"/><rect fill="#F1F1F1" height="10" style="stroke:#181818;stroke-width:0.5;" width="15" x="485.8975" y="258"/><rect fill="#F1F1F1" height="2" style="stroke:#181818;stroke-width:0.5;" width="4" x="483.8975" y="260"/><rect fill="#F1F1F1" height="2" style="stroke:#181818;stroke-width:0.5;" width="4" x="483.8975" y="264"/><text fill="#000000" font-family="sans-serif" font-size="14" lengthAdjust="spacing" textLength="87.3975" x="393.5" y="285.9951">localStorage</text></g><!--link JavaScript to RecipeCard--><g id="link_JavaScript_RecipeCard"><path d="M234.86,87.06 C201.94,104.7 161.2782,126.5055 128.3682,144.1455 " fill="transparent" id="JavaScript-to-RecipeCard" style="stroke:#181818;stroke-width:1;"/><polygon fill="#181818" points="123.08,146.98,132.902,146.2537,127.4869,144.6179,129.1227,139.2027,123.08,146.98" style="stroke:#181818;stroke-width:1;"/></g><!--link JavaScript to CategorySelector--><g id="link_JavaScript_CategorySelector"><path d="M272.18,87.06 C269.13,104.7 265.8955,123.4283 262.8355,141.0683 " fill="transparent" id="JavaScript-to-CategorySelector" style="stroke:#181818;stroke-width:1;"/><polygon fill="#181818" points="261.81,146.98,267.2894,138.7961,262.6646,142.0536,259.4071,137.4288,261.81,146.98" style="stroke:#181818;stroke-width:1;"/></g><!--link JavaScript to SaveManager--><g id="link_JavaScript_SaveManager"><path d="M311.2,87.06 C339.38,104.7 373.6053,126.1548 401.7653,143.7948 " fill="transparent" id="JavaScript-to-SaveManager" style="stroke:#181818;stroke-width:1;"/><polygon fill="#181818" points="406.85,146.98,401.3463,138.8124,402.6127,144.3257,397.0994,145.592,406.85,146.98" style="stroke:#181818;stroke-width:1;"/></g><!--link JavaScript to ShareButton--><g id="link_JavaScript_ShareButton"><path d="M331.36,82.29 C390.17,100.66 477.3028,127.8715 539.2328,147.2115 " fill="transparent" id="JavaScript-to-ShareButton" style="stroke:#181818;stroke-width:1;"/><polygon fill="#181818" points="544.96,149,537.5615,142.499,540.1873,147.5095,535.1768,150.1353,544.96,149" style="stroke:#181818;stroke-width:1;"/></g><!--link RecipeCard to TheMealDB API--><g id="link_RecipeCard_TheMealDB API"><path d="M82,193.06 C82,210.7 82,229.34 82,246.98 " fill="transparent" id="RecipeCard-to-TheMealDB API" style="stroke:#181818;stroke-width:1;"/><polygon fill="#181818" points="82,252.98,86,243.98,82,247.98,78,243.98,82,252.98" style="stroke:#181818;stroke-width:1;"/></g><!--link SaveManager to localStorage--><g id="link_SaveManager_localStorage"><path d="M442,193.06 C442,210.7 442,229.34 442,246.98 " fill="transparent" id="SaveManager-to-localStorage" style="stroke:#181818;stroke-width:1;"/><polygon fill="#181818" points="442,252.98,446,243.98,442,247.98,438,243.98,442,252.98" style="stroke:#181818;stroke-width:1;"/></g><!--SRC=[POx12i8m38RlVOhWVQyWk8ceE10x41mzX2viOxKjfGw6-ExMUR2pfoJ_5_B5eXom9LZTi1_mYXFidD6UTBE29mEezrLv4f-cu7okHnoHIzTRBrYOfRbReqbxk93iBHNecaLSeAVMk8cJ8kcDMq2E8vMemmT_UOUEyeVtHhCNOx4KicmTknAM29EDs9h2ICr-dfdLLKSbeThci3aV18iEVRao4XKFqX29Dm00]--></g></svg>