<svg xmlns="http://www.w3.org/2000/svg" xmlns:xlink="http://www.w3.org/1999/xlink" contentStyleType="text/css" data-diagram-type="DESCRIPTION" height="363px" preserveAspectRatio="none" style="width:307px;height:363px;background:#FFFFFF;" version="1.1" viewBox="0 0 307 363" width="307px" zoomAndPan="magnify"><defs/><g><!--cluster ZaikaWay App--><g id="cluster_ZaikaWay App"><rect fill="transparent" height="204.72" rx="2.5" ry="2.5" style="stroke:#181818;stroke-width:1;" width="277" x="7" y="152.5"/><text fill="#000000" font-family="sans-serif" font-size="14" font-weight="bold" lengthAdjust="spacing" textLength="112.9229" x="89.0386" y="167.4951">ZaikaWay App</text></g><!--entity TheMealDB API--><g id="elem_TheMealDB API"><ellipse cx="84.0913" cy="265.72" fill="#F1F1F1" rx="8" ry="8" style="stroke:#181818;stroke-width:0.5;"/><path d="M84.0913,273.72 L84.0913,300.72 M71.0913,281.72 L97.0913,281.72 M84.0913,300.72 L71.0913,315.72 M84.0913,300.72 L97.0913,315.72 " fill="transparent" style="stroke:#181818;stroke-width:0.5;"/><text fill="#000000" font-family="sans-serif" font-size="14" lengthAdjust="spacing" textLength="106.1826" x="31" y="330.2151">TheMealDB API</text></g><!--entity localStorage--><g id="elem_localStorage"><ellipse cx="216.1987" cy="265.72" fill="#F1F1F1" rx="8" ry="8" style="stroke:#181818;stroke-width:0.5;"/><path d="M216.1987,273.72 L216.1987,300.72 M203.1987,281.72 L229.1987,281.72 M216.1987,300.72 L203.1987,315.72 M216.1987,300.72 L229.1987,315.72 " fill="transparent" style="stroke:#181818;stroke-width:0.5;"/><text fill="#000000" font-family="sans-serif" font-size="14" lengthAdjust="spacing" textLength="87.3975" x="172.5" y="330.2151">localStorage</text></g><!--entity User--><g id="elem_User"><ellipse cx="127.9551" cy="14" fill="#F1F1F1" rx="8" ry="8" style="stroke:#181818;stroke-width:0.5;"/><path d="M127.9551,22 L127.9551,49 M114.9551,30 L140.9551,30 M127.9551,49 L114.9551,64 M127.9551,49 L140.9551,64 " fill="transparent" style="stroke:#181818;stroke-width:0.5;"/><text fill="#000000" font-family="sans-serif" font-size="14" lengthAdjust="spacing" textLength="31.9102" x="112" y="78.4951">User</text></g><!--link User to ZaikaWay App--><g id="link_User_ZaikaWay App"><path d="M128,81.57 C128,100.835 128,124.2625 128,143.3 C128,145.6797 128,147.9908 128,150.2166 C128,150.773 128,151.3241 128,151.8697 C128,152.0061 128,146.1421 128,146.2778 " fill="transparent" id="User-to-ZaikaWay App" style="stroke:#181818;stroke-width:1;"/><polygon fill="#181818" points="128,152.2778,132,143.2778,128,147.2778,124,143.2778,128,152.2778" style="stroke:#181818;stroke-width:1;"/><text fill="#000000" font-family="sans-serif" font-size="13" lengthAdjust="spacing" textLength="170.3711" x="129" y="124.5669">Select Category / Random</text></g><!--link ZaikaWay App to TheMealDB API--><g id="link_ZaikaWay App_TheMealDB API"><path d="M127.85,180.23 C124.87,180.37 76.76,183.13 59,210.22 C49.82,224.22 50.7311,236.1992 57.5111,251.5892 " fill="transparent" id="ZaikaWay App-to-TheMealDB API" style="stroke:#181818;stroke-width:1;"/><polygon fill="#181818" points="59.93,257.08,59.9621,247.2312,57.9142,252.5043,52.6411,250.4565,59.93,257.08" style="stroke:#181818;stroke-width:1;"/><text fill="#000000" font-family="sans-serif" font-size="13" lengthAdjust="spacing" textLength="90.9048" x="60" y="223.2869">Fetch Recipes</text></g><!--link ZaikaWay App to localStorage--><g id="link_ZaikaWay App_localStorage"><path d="M128.05,180.27 C128.98,181.22 144.07,196.71 155,210.22 C167.13,225.21 176.2951,237.4558 186.9051,252.3258 " fill="transparent" id="ZaikaWay App-to-localStorage" style="stroke:#181818;stroke-width:1;"/><polygon fill="#181818" points="190.39,257.21,188.4187,247.5604,187.4859,253.1399,181.9065,252.207,190.39,257.21" style="stroke:#181818;stroke-width:1;"/><text fill="#000000" font-family="sans-serif" font-size="13" lengthAdjust="spacing" textLength="80.082" x="168" y="223.2869">Save Recipe</text></g><!--SRC=[TSwn2i8m60JWFKznT2_k3aAh20w2j1R1xISUQJ4s8Gr24T_T69mApdSVTwAZ2-Wc1XMeeup64iLLXhjSP4RbVO6NGcwWB3VBR8sMDa5i9TAuC6E5HiQRUoIqw6P-xdcas5sDwdJu-ZsZxj5G3vxJ7sIT5jkcfsAOD-N97r7l3m00]--></g></svg>