<svg xmlns="http://www.w3.org/2000/svg" xmlns:xlink="http://www.w3.org/1999/xlink" contentStyleType="text/css" data-diagram-type="DESCRIPTION" height="298px" preserveAspectRatio="none" style="width:422px;height:298px;background:#FFFFFF;" version="1.1" viewBox="0 0 422 298" width="422px" zoomAndPan="magnify"><defs/><g><!--cluster User Device--><g id="cluster_User Device"><polygon fill="transparent" points="16,16,26,6,405,6,405,271,395,281,16,281,16,16" style="stroke:#181818;stroke-width:1;"/><line style="stroke:#181818;stroke-width:1;" x1="395" x2="405" y1="16" y2="6"/><line style="stroke:#181818;stroke-width:1;" x1="16" x2="395" y1="16" y2="16"/><line style="stroke:#181818;stroke-width:1;" x1="395" x2="395" y1="16" y2="281"/><text fill="#000000" font-family="sans-serif" font-size="14" font-weight="bold" lengthAdjust="spacing" textLength="93.8096" x="159.5952" y="31.9951">User Device</text></g><!--cluster Web Browser--><g id="cluster_Web Browser"><rect fill="transparent" height="203" rx="2.5" ry="2.5" style="stroke:#181818;stroke-width:1;" width="341" x="40" y="54"/><rect fill="transparent" height="10" style="stroke:#181818;stroke-width:1;" width="15" x="361" y="59"/><rect fill="transparent" height="2" style="stroke:#181818;stroke-width:1;" width="4" x="359" y="61"/><rect fill="transparent" height="2" style="stroke:#181818;stroke-width:1;" width="4" x="359" y="65"/><text fill="#000000" font-family="sans-serif" font-size="14" font-weight="bold" lengthAdjust="spacing" textLength="104.6924" x="158.1538" y="79.9951">Web Browser</text></g><!--entity ZaikaWay App--><g id="elem_ZaikaWay App"><rect fill="#F1F1F1" height="46.2969" rx="2.5" ry="2.5" style="stroke:#181818;stroke-width:0.5;" width="141.2539" x="138.5" y="89"/><rect fill="#F1F1F1" height="10" style="stroke:#181818;stroke-width:0.5;" width="15" x="259.7539" y="94"/><rect fill="#F1F1F1" height="2" style="stroke:#181818;stroke-width:0.5;" width="4" x="257.7539" y="96"/><rect fill="#F1F1F1" height="2" style="stroke:#181818;stroke-width:0.5;" width="4" x="257.7539" y="100"/><text fill="#000000" font-family="sans-serif" font-size="14" lengthAdjust="spacing" textLength="101.2539" x="153.5" y="121.9951">ZaikaWay App</text></g><!--entity localStorage--><g id="elem_localStorage"><rect fill="#F1F1F1" height="46.2969" rx="2.5" ry="2.5" style="stroke:#181818;stroke-width:0.5;" width="127.3975" x="56.5" y="195"/><rect fill="#F1F1F1" height="10" style="stroke:#181818;stroke-width:0.5;" width="15" x="163.8975" y="200"/><rect fill="#F1F1F1" height="2" style="stroke:#181818;stroke-width:0.5;" width="4" x="161.8975" y="202"/><rect fill="#F1F1F1" height="2" style="stroke:#181818;stroke-width:0.5;" width="4" x="161.8975" y="206"/><text fill="#000000" font-family="sans-serif" font-size="14" lengthAdjust="spacing" textLength="87.3975" x="71.5" y="227.9951">localStorage</text></g><!--entity TheMealDB API--><g id="elem_TheMealDB API"><rect fill="#F1F1F1" height="46.2969" rx="2.5" ry="2.5" style="stroke:#181818;stroke-width:0.5;" width="146.1826" x="219" y="195"/><rect fill="#F1F1F1" height="10" style="stroke:#181818;stroke-width:0.5;" width="15" x="345.1826" y="200"/><rect fill="#F1F1F1" height="2" style="stroke:#181818;stroke-width:0.5;" width="4" x="343.1826" y="202"/><rect fill="#F1F1F1" height="2" style="stroke:#181818;stroke-width:0.5;" width="4" x="343.1826" y="206"/><text fill="#000000" font-family="sans-serif" font-size="14" lengthAdjust="spacing" textLength="106.1826" x="234" y="227.9951">TheMealDB API</text></g><!--link ZaikaWay App to localStorage--><g id="link_ZaikaWay App_localStorage"><path d="M190.13,135.06 C175.02,152.7 157.8403,172.7806 142.7503,190.4206 " fill="transparent" id="ZaikaWay App-to-localStorage" style="stroke:#181818;stroke-width:1;"/><polygon fill="#181818" points="138.85,194.98,147.74,190.7411,142.1002,191.1805,141.6608,185.5408,138.85,194.98" style="stroke:#181818;stroke-width:1;"/></g><!--link ZaikaWay App to TheMealDB API--><g id="link_ZaikaWay App_TheMealDB API"><path d="M226.6,135.06 C240.69,152.7 256.597,172.6506 270.677,190.2906 " fill="transparent" id="ZaikaWay App-to-TheMealDB API" style="stroke:#181818;stroke-width:1;"/><polygon fill="#181818" points="274.42,194.98,271.9318,185.4506,271.3008,191.0722,265.6793,190.4413,274.42,194.98" style="stroke:#181818;stroke-width:1;"/></g><!--SRC=[oyjFILLG2YrEBL9mIItBJ4vLKgZcKb18piyjoCzBpIjHK0fFJL9mAiel1og1o2aeH4SbPcOdXYTMAZWM5CGgwEhQAKJdv2SdvWINv1SbfgV6ubGLaf7gcvgOu-Aau1ZW2L9MorKB0000]--></g></svg>