<svg xmlns="http://www.w3.org/2000/svg" xmlns:xlink="http://www.w3.org/1999/xlink" contentStyleType="text/css" data-diagram-type="CLASS" height="150px" preserveAspectRatio="none" style="width:159px;height:150px;background:#FFFFFF;" version="1.1" viewBox="0 0 159 150" width="159px" zoomAndPan="magnify"><defs/><g><!--class Recipe--><g id="elem_Recipe"><rect codeLine="1" fill="#F1F1F1" height="129.4844" id="Recipe" rx="2.5" ry="2.5" style="stroke:#181818;stroke-width:0.5;" width="138.54" x="7" y="7"/><ellipse cx="48.6005" cy="23" fill="#ADD1B2" rx="11" ry="11" style="stroke:#181818;stroke-width:1;"/><path d="M52.7099,29 L44.9912,29 L44.9912,16.6094 L52.7099,16.6094 L52.7099,18.7656 L47.4443,18.7656 L47.4443,21.4375 L52.2099,21.4375 L52.2099,23.5938 L47.4443,23.5938 L47.4443,26.8438 L52.7099,26.8438 L52.7099,29 Z " fill="#000000"/><text fill="#000000" font-family="sans-serif" font-size="14" lengthAdjust="spacing" textLength="47.4277" x="68.5118" y="27.8467">Recipe</text><line style="stroke:#181818;stroke-width:0.5;" x1="8" x2="144.54" y1="39" y2="39"/><ellipse cx="18" cy="52.6484" fill="#000000" rx="3" ry="3" style="stroke:#000000;stroke-width:1;"/><text fill="#000000" font-family="sans-serif" font-size="14" lengthAdjust="spacing" textLength="107.3789" x="27" y="55.9951">id : String &#171;PK&#187;</text><line style="stroke:#181818;stroke-width:1;" x1="8" x2="144.54" y1="63.2969" y2="63.2969"/><text fill="#000000" font-family="sans-serif" font-size="14" lengthAdjust="spacing" textLength="95.1016" x="13" y="80.292">name : String</text><text fill="#000000" font-family="sans-serif" font-size="14" lengthAdjust="spacing" textLength="117.2705" x="13" y="96.5889">category : String</text><text fill="#000000" font-family="sans-serif" font-size="14" lengthAdjust="spacing" textLength="126.54" x="13" y="112.8857">instructions : Text</text><text fill="#000000" font-family="sans-serif" font-size="14" lengthAdjust="spacing" textLength="112.3828" x="13" y="129.1826">thumbnail : URL</text></g><!--SRC=[IyqhoIofL50AIatEB4XLKgZcKb3GKiXCKR1I22ufoinBLx2n2V2simCAw-e2YRp4t5Iu792Vd5YIcfvVL8aibfbNN59KcboIcPzN31GFIQqe0OgMP9Jc9kKbPkO0XKA3VBXg0G00]--></g></svg>