<svg xmlns="http://www.w3.org/2000/svg" xmlns:xlink="http://www.w3.org/1999/xlink" contentStyleType="text/css" data-diagram-type="CLASS" height="235px" preserveAspectRatio="none" style="width:654px;height:235px;background:#FFFFFF;" version="1.1" viewBox="0 0 654 235" width="654px" zoomAndPan="magnify"><defs/><g><!--class ZaikaWay--><g id="elem_ZaikaWay"><rect codeLine="1" fill="#F1F1F1" height="113.1875" id="ZaikaWay" rx="2.5" ry="2.5" style="stroke:#181818;stroke-width:0.5;" width="129.4824" x="286" y="7"/><ellipse cx="313.6132" cy="23" fill="#ADD1B2" rx="11" ry="11" style="stroke:#181818;stroke-width:1;"/><path d="M317.7226,29 L310.0038,29 L310.0038,16.6094 L317.7226,16.6094 L317.7226,18.7656 L312.4569,18.7656 L312.4569,21.4375 L317.2226,21.4375 L317.2226,23.5938 L312.4569,23.5938 L312.4569,26.8438 L317.7226,26.8438 L317.7226,29 Z " fill="#000000"/><text fill="#000000" font-family="sans-serif" font-size="14" lengthAdjust="spacing" textLength="69.4531" x="330.4161" y="27.8467">ZaikaWay</text><line style="stroke:#181818;stroke-width:0.5;" x1="287" x2="414.4824" y1="39" y2="39"/><ellipse cx="297" cy="52.6484" fill="#000000" rx="3" ry="3" style="stroke:#000000;stroke-width:1;"/><text fill="#000000" font-family="sans-serif" font-size="14" lengthAdjust="spacing" textLength="41.3438" x="306" y="55.9951">Home</text><ellipse cx="297" cy="68.9453" fill="#000000" rx="3" ry="3" style="stroke:#000000;stroke-width:1;"/><text fill="#000000" font-family="sans-serif" font-size="14" lengthAdjust="spacing" textLength="103.4824" x="306" y="72.292">Recipe Display</text><ellipse cx="297" cy="85.2422" fill="#000000" rx="3" ry="3" style="stroke:#000000;stroke-width:1;"/><text fill="#000000" font-family="sans-serif" font-size="14" lengthAdjust="spacing" textLength="102.4229" x="306" y="88.5889">Saved Recipes</text><ellipse cx="297" cy="101.5391" fill="#000000" rx="3" ry="3" style="stroke:#000000;stroke-width:1;"/><text fill="#000000" font-family="sans-serif" font-size="14" lengthAdjust="spacing" textLength="100.1328" x="306" y="104.8857">Theme Toggle</text><line style="stroke:#181818;stroke-width:0.5;" x1="287" x2="414.4824" y1="112.1875" y2="112.1875"/></g><!--class Category Buttons--><g id="elem_Category Buttons"><rect fill="#F1F1F1" height="48" id="Category Buttons" rx="2.5" ry="2.5" style="stroke:#181818;stroke-width:0.5;" width="154.5889" x="7" y="180"/><ellipse cx="22" cy="196" fill="#ADD1B2" rx="11" ry="11" style="stroke:#181818;stroke-width:1;"/><path d="M24.9688,201.6406 Q24.3906,201.9375 23.75,202.0781 Q23.1094,202.2344 22.4063,202.2344 Q19.9063,202.2344 18.5781,200.5938 Q17.2656,198.9375 17.2656,195.8125 Q17.2656,192.6875 18.5781,191.0313 Q19.9063,189.375 22.4063,189.375 Q23.1094,189.375 23.75,189.5313 Q24.4063,189.6875 24.9688,189.9844 L24.9688,192.7031 Q24.3438,192.125 23.75,191.8594 Q23.1563,191.5781 22.5313,191.5781 Q21.1875,191.5781 20.5,192.6563 Q19.8125,193.7188 19.8125,195.8125 Q19.8125,197.9063 20.5,198.9844 Q21.1875,200.0469 22.5313,200.0469 Q23.1563,200.0469 23.75,199.7813 Q24.3438,199.5 24.9688,198.9219 L24.9688,201.6406 Z " fill="#000000"/><text fill="#000000" font-family="sans-serif" font-size="14" lengthAdjust="spacing" textLength="122.5889" x="36" y="200.8467">Category Buttons</text><line style="stroke:#181818;stroke-width:0.5;" x1="8" x2="160.5889" y1="212" y2="212"/><line style="stroke:#181818;stroke-width:0.5;" x1="8" x2="160.5889" y1="220" y2="220"/></g><!--class Random Button--><g id="elem_Random Button"><rect fill="#F1F1F1" height="48" id="Random Button" rx="2.5" ry="2.5" style="stroke:#181818;stroke-width:0.5;" width="141.6143" x="197.5" y="180"/><ellipse cx="212.5" cy="196" fill="#ADD1B2" rx="11" ry="11" style="stroke:#181818;stroke-width:1;"/><path d="M215.4688,201.6406 Q214.8906,201.9375 214.25,202.0781 Q213.6094,202.2344 212.9063,202.2344 Q210.4063,202.2344 209.0781,200.5938 Q207.7656,198.9375 207.7656,195.8125 Q207.7656,192.6875 209.0781,191.0313 Q210.4063,189.375 212.9063,189.375 Q213.6094,189.375 214.25,189.5313 Q214.9063,189.6875 215.4688,189.9844 L215.4688,192.7031 Q214.8438,192.125 214.25,191.8594 Q213.6563,191.5781 213.0313,191.5781 Q211.6875,191.5781 211,192.6563 Q210.3125,193.7188 210.3125,195.8125 Q210.3125,197.9063 211,198.9844 Q211.6875,200.0469 213.0313,200.0469 Q213.6563,200.0469 214.25,199.7813 Q214.8438,199.5 215.4688,198.9219 L215.4688,201.6406 Z " fill="#000000"/><text fill="#000000" font-family="sans-serif" font-size="14" lengthAdjust="spacing" textLength="109.6143" x="226.5" y="200.8467">Random Button</text><line style="stroke:#181818;stroke-width:0.5;" x1="198.5" x2="338.1143" y1="212" y2="212"/><line style="stroke:#181818;stroke-width:0.5;" x1="198.5" x2="338.1143" y1="220" y2="220"/></g><!--class Recipe Card--><g id="elem_Recipe Card"><rect fill="#F1F1F1" height="48" id="Recipe Card" rx="2.5" ry="2.5" style="stroke:#181818;stroke-width:0.5;" width="116.875" x="375" y="180"/><ellipse cx="390" cy="196" fill="#ADD1B2" rx="11" ry="11" style="stroke:#181818;stroke-width:1;"/><path d="M392.9688,201.6406 Q392.3906,201.9375 391.75,202.0781 Q391.1094,202.2344 390.4063,202.2344 Q387.9063,202.2344 386.5781,200.5938 Q385.2656,198.9375 385.2656,195.8125 Q385.2656,192.6875 386.5781,191.0313 Q387.9063,189.375 390.4063,189.375 Q391.1094,189.375 391.75,189.5313 Q392.4063,189.6875 392.9688,189.9844 L392.9688,192.7031 Q392.3438,192.125 391.75,191.8594 Q391.1563,191.5781 390.5313,191.5781 Q389.1875,191.5781 388.5,192.6563 Q387.8125,193.7188 387.8125,195.8125 Q387.8125,197.9063 388.5,198.9844 Q389.1875,200.0469 390.5313,200.0469 Q391.1563,200.0469 391.75,199.7813 Q392.3438,199.5 392.9688,198.9219 L392.9688,201.6406 Z " fill="#000000"/><text fill="#000000" font-family="sans-serif" font-size="14" lengthAdjust="spacing" textLength="84.875" x="404" y="200.8467">Recipe Card</text><line style="stroke:#181818;stroke-width:0.5;" x1="376" x2="490.875" y1="212" y2="212"/><line style="stroke:#181818;stroke-width:0.5;" x1="376" x2="490.875" y1="220" y2="220"/></g><!--class Save / Share--><g id="elem_Save / Share"><rect fill="#F1F1F1" height="48" id="Save / Share" rx="2.5" ry="2.5" style="stroke:#181818;stroke-width:0.5;" width="120.6895" x="527" y="180"/><ellipse cx="542" cy="196" fill="#ADD1B2" rx="11" ry="11" style="stroke:#181818;stroke-width:1;"/><path d="M544.9688,201.6406 Q544.3906,201.9375 543.75,202.0781 Q543.1094,202.2344 542.4063,202.2344 Q539.9063,202.2344 538.5781,200.5938 Q537.2656,198.9375 537.2656,195.8125 Q537.2656,192.6875 538.5781,191.0313 Q539.9063,189.375 542.4063,189.375 Q543.1094,189.375 543.75,189.5313 Q544.4063,189.6875 544.9688,189.9844 L544.9688,192.7031 Q544.3438,192.125 543.75,191.8594 Q543.1563,191.5781 542.5313,191.5781 Q541.1875,191.5781 540.5,192.6563 Q539.8125,193.7188 539.8125,195.8125 Q539.8125,197.9063 540.5,198.9844 Q541.1875,200.0469 542.5313,200.0469 Q543.1563,200.0469 543.75,199.7813 Q544.3438,199.5 544.9688,198.9219 L544.9688,201.6406 Z " fill="#000000"/><text fill="#000000" font-family="sans-serif" font-size="14" lengthAdjust="spacing" textLength="88.6895" x="556" y="200.8467">Save / Share</text><line style="stroke:#181818;stroke-width:0.5;" x1="528" x2="646.6895" y1="212" y2="212"/><line style="stroke:#181818;stroke-width:0.5;" x1="528" x2="646.6895" y1="220" y2="220"/></g><!--link ZaikaWay to Category Buttons--><g id="link_ZaikaWay_Category Buttons"><path codeLine="8" d="M285.77,98.2 C237.17,123.51 177.2221,154.7297 134.3621,177.0397 " fill="transparent" id="ZaikaWay-to-Category Buttons" style="stroke:#181818;stroke-width:1;"/><polygon fill="#181818" points="129.04,179.81,138.8701,179.2026,133.4751,177.5014,135.1763,172.1064,129.04,179.81" style="stroke:#181818;stroke-width:1;"/></g><!--link ZaikaWay to Random Button--><g id="link_ZaikaWay_Random Button"><path codeLine="9" d="M317.62,120.04 C305.23,140.96 294.8781,158.4578 285.1981,174.7978 " fill="transparent" id="ZaikaWay-to-Random Button" style="stroke:#181818;stroke-width:1;"/><polygon fill="#181818" points="282.14,179.96,290.1686,174.2555,284.6884,175.6582,283.2857,170.178,282.14,179.96" style="stroke:#181818;stroke-width:1;"/></g><!--link ZaikaWay to Recipe Card--><g id="link_ZaikaWay_Recipe Card"><path codeLine="10" d="M383.78,120.04 C396.32,140.96 406.8163,158.4731 416.6063,174.8131 " fill="transparent" id="ZaikaWay-to-Recipe Card" style="stroke:#181818;stroke-width:1;"/><polygon fill="#181818" points="419.69,179.96,418.4957,170.1838,417.1202,175.6709,411.6331,174.2955,419.69,179.96" style="stroke:#181818;stroke-width:1;"/></g><!--link ZaikaWay to Save / Share--><g id="link_ZaikaWay_Save / Share"><path codeLine="11" d="M415.26,102.35 C457.75,127.17 506.7495,155.8131 542.8795,176.9231 " fill="transparent" id="ZaikaWay-to-Save / Share" style="stroke:#181818;stroke-width:1;"/><polygon fill="#181818" points="548.06,179.95,542.3071,171.956,543.7429,177.4276,538.2713,178.8634,548.06,179.95" style="stroke:#181818;stroke-width:1;"/></g><!--SRC=[PSx12i8m40JGUxvYo54e_e47wy5pMn2yBMP9Wqss9AaGn7yNOxtKsp8FPfP3Thb0NydTwK95uwc07SxYkHuTtzpCEBaqJrHgrDE3pGgf9iF8dZ68jHEhbrA_DZJD0Rgbp5PYmN79MKBI6-ye6F6h_k5tlwLejlJv0tlq8qNMRm00]--></g></svg>