<svg xmlns="http://www.w3.org/2000/svg" xmlns:xlink="http://www.w3.org/1999/xlink" contentStyleType="text/css" data-diagram-type="SEQUENCE" height="356px" preserveAspectRatio="none" style="width:453px;height:356px;background:#FFFFFF;" version="1.1" viewBox="0 0 453 356" width="453px" zoomAndPan="magnify"><defs/><g><g><title>User</title><rect fill="transparent" height="194.7969" width="8" x="19.9551" y="81.2969"/><line style="stroke:#181818;stroke-width:0.5;stroke-dasharray:5.0,5.0;" x1="23" x2="23" y1="81.2969" y2="276.0938"/></g><g><title>App UI</title><rect fill="transparent" height="194.7969" width="8" x="147.5742" y="81.2969"/><line style="stroke:#181818;stroke-width:0.5;stroke-dasharray:5.0,5.0;" x1="151.4858" x2="151.4858" y1="81.2969" y2="276.0938"/></g><g><title>TheMealDB API</title><rect fill="transparent" height="194.7969" width="8" x="272.229" y="81.2969"/><line style="stroke:#181818;stroke-width:0.5;stroke-dasharray:5.0,5.0;" x1="276.1377" x2="276.1377" y1="81.2969" y2="276.0938"/></g><g><title>localStorage</title><rect fill="transparent" height="194.7969" width="8" x="393.019" y="81.2969"/><line style="stroke:#181818;stroke-width:0.5;stroke-dasharray:5.0,5.0;" x1="396.3203" x2="396.3203" y1="81.2969" y2="276.0938"/></g><text fill="#000000" font-family="sans-serif" font-size="14" lengthAdjust="spacing" textLength="31.9102" x="5" y="77.9951">User</text><ellipse cx="23.9551" cy="13.5" fill="#E2E2F0" rx="8" ry="8" style="stroke:#181818;stroke-width:0.5;"/><path d="M23.9551,21.5 L23.9551,48.5 M10.9551,29.5 L36.9551,29.5 M23.9551,48.5 L10.9551,63.5 M23.9551,48.5 L36.9551,63.5 " fill="transparent" style="stroke:#181818;stroke-width:0.5;"/><text fill="#000000" font-family="sans-serif" font-size="14" lengthAdjust="spacing" textLength="31.9102" x="5" y="288.0889">User</text><ellipse cx="23.9551" cy="299.8906" fill="#E2E2F0" rx="8" ry="8" style="stroke:#181818;stroke-width:0.5;"/><path d="M23.9551,307.8906 L23.9551,334.8906 M10.9551,315.8906 L36.9551,315.8906 M23.9551,334.8906 L10.9551,349.8906 M23.9551,334.8906 L36.9551,349.8906 " fill="transparent" style="stroke:#181818;stroke-width:0.5;"/><rect fill="#E2E2F0" height="30.2969" rx="2.5" ry="2.5" style="stroke:#181818;stroke-width:0.5;" width="60.1768" x="121.4858" y="50"/><text fill="#000000" font-family="sans-serif" font-size="14" lengthAdjust="spacing" textLength="46.1768" x="128.4858" y="69.9951">App UI</text><rect fill="#E2E2F0" height="30.2969" rx="2.5" ry="2.5" style="stroke:#181818;stroke-width:0.5;" width="60.1768" x="121.4858" y="275.0938"/><text fill="#000000" font-family="sans-serif" font-size="14" lengthAdjust="spacing" textLength="46.1768" x="128.4858" y="295.0889">App UI</text><rect fill="#E2E2F0" height="30.2969" rx="2.5" ry="2.5" style="stroke:#181818;stroke-width:0.5;" width="120.1826" x="216.1377" y="50"/><text fill="#000000" font-family="sans-serif" font-size="14" lengthAdjust="spacing" textLength="106.1826" x="223.1377" y="69.9951">TheMealDB API</text><rect fill="#E2E2F0" height="30.2969" rx="2.5" ry="2.5" style="stroke:#181818;stroke-width:0.5;" width="120.1826" x="216.1377" y="275.0938"/><text fill="#000000" font-family="sans-serif" font-size="14" lengthAdjust="spacing" textLength="106.1826" x="223.1377" y="295.0889">TheMealDB API</text><rect fill="#E2E2F0" height="30.2969" rx="2.5" ry="2.5" style="stroke:#181818;stroke-width:0.5;" width="101.3975" x="346.3203" y="50"/><text fill="#000000" font-family="sans-serif" font-size="14" lengthAdjust="spacing" textLength="87.3975" x="353.3203" y="69.9951">localStorage</text><rect fill="#E2E2F0" height="30.2969" rx="2.5" ry="2.5" style="stroke:#181818;stroke-width:0.5;" width="101.3975" x="346.3203" y="275.0938"/><text fill="#000000" font-family="sans-serif" font-size="14" lengthAdjust="spacing" textLength="87.3975" x="353.3203" y="295.0889">localStorage</text><polygon fill="#181818" points="139.5742,108.4297,149.5742,112.4297,139.5742,116.4297,143.5742,112.4297" style="stroke:#181818;stroke-width:1;"/><line style="stroke:#181818;stroke-width:1;" x1="23.9551" x2="145.5742" y1="112.4297" y2="112.4297"/><text fill="#000000" font-family="sans-serif" font-size="13" lengthAdjust="spacing" textLength="103.6191" x="30.9551" y="107.3638">Select Category</text><polygon fill="#181818" points="264.229,137.5625,274.229,141.5625,264.229,145.5625,268.229,141.5625" style="stroke:#181818;stroke-width:1;"/><line style="stroke:#181818;stroke-width:1;" x1="151.5742" x2="270.229" y1="141.5625" y2="141.5625"/><text fill="#000000" font-family="sans-serif" font-size="13" lengthAdjust="spacing" textLength="100.6548" x="158.5742" y="136.4966">fetch(category)</text><polygon fill="#181818" points="162.5742,166.6953,152.5742,170.6953,162.5742,174.6953,158.5742,170.6953" style="stroke:#181818;stroke-width:1;"/><line style="stroke:#181818;stroke-width:1;stroke-dasharray:2.0,2.0;" x1="156.5742" x2="275.229" y1="170.6953" y2="170.6953"/><text fill="#000000" font-family="sans-serif" font-size="13" lengthAdjust="spacing" textLength="79.2124" x="168.5742" y="165.6294">Recipe Data</text><polygon fill="#181818" points="34.9551,195.8281,24.9551,199.8281,34.9551,203.8281,30.9551,199.8281" style="stroke:#181818;stroke-width:1;"/><line style="stroke:#181818;stroke-width:1;" x1="28.9551" x2="150.5742" y1="199.8281" y2="199.8281"/><text fill="#000000" font-family="sans-serif" font-size="13" lengthAdjust="spacing" textLength="102.8638" x="40.9551" y="194.7622">Display Recipes</text><polygon fill="#181818" points="139.5742,224.9609,149.5742,228.9609,139.5742,232.9609,143.5742,228.9609" style="stroke:#181818;stroke-width:1;"/><line style="stroke:#181818;stroke-width:1;" x1="23.9551" x2="145.5742" y1="228.9609" y2="228.9609"/><text fill="#000000" font-family="sans-serif" font-size="13" lengthAdjust="spacing" textLength="80.082" x="30.9551" y="223.895">Save Recipe</text><polygon fill="#181818" points="385.019,254.0938,395.019,258.0938,385.019,262.0938,389.019,258.0938" style="stroke:#181818;stroke-width:1;"/><line style="stroke:#181818;stroke-width:1;" x1="151.5742" x2="391.019" y1="258.0938" y2="258.0938"/><text fill="#000000" font-family="sans-serif" font-size="13" lengthAdjust="spacing" textLength="134.3799" x="158.5742" y="253.0278">Save to localStorage</text><!--SRC=[NOvD2i8m48NtESNGbIvwWIw4QZP2XMBi0OOmje5WGZ88lRtJce9rDV2-zpDeEIGOCYKLCR6pBkABeMfZXE5Q0MOvU_IOw4RezHdQ_kkGkxVuOD4RQSQHLaTdb5f6e3v97pHWo9Dbk23J6DAiH1GaHSAUn7Ows8AEQb7hBNWd6I7Go5X2Qsy3skNeSIw6_B-7Rogen3gpoHpWz-4F]--></g></svg>