<svg xmlns="http://www.w3.org/2000/svg" xmlns:xlink="http://www.w3.org/1999/xlink" contentStyleType="text/css" data-diagram-type="DESCRIPTION" height="192px" preserveAspectRatio="none" style="width:1269px;height:192px;background:#FFFFFF;" version="1.1" viewBox="0 0 1269 192" width="1269px" zoomAndPan="magnify"><defs/><g><!--entity User--><g id="elem_User"><ellipse cx="674.4551" cy="14" fill="#F1F1F1" rx="8" ry="8" style="stroke:#181818;stroke-width:0.5;"/><path d="M674.4551,22 L674.4551,49 M661.4551,30 L687.4551,30 M674.4551,49 L661.4551,64 M674.4551,49 L687.4551,64 " fill="transparent" style="stroke:#181818;stroke-width:0.5;"/><text fill="#000000" font-family="sans-serif" font-size="14" lengthAdjust="spacing" textLength="31.9102" x="658.5" y="78.4951">User</text></g><g id="elem_Browse Recipes"><ellipse cx="82.7408" cy="164.2482" fill="#F1F1F1" rx="76.7408" ry="17.7482" style="stroke:#181818;stroke-width:0.5;"/><text fill="#000000" font-family="sans-serif" font-size="14" lengthAdjust="spacing" textLength="110.4551" x="24.5318" y="167.9909">Browse Recipes</text></g><g id="elem_Generate Random Meal"><ellipse cx="295.2535" cy="164.0507" fill="#F1F1F1" rx="100.7535" ry="22.5507" style="stroke:#181818;stroke-width:0.5;"/><text fill="#000000" font-family="sans-serif" font-size="14" lengthAdjust="spacing" textLength="165.7168" x="212.3951" y="166.8974">Generate Random Meal</text></g><g id="elem_Save Recipe"><ellipse cx="499.6097" cy="163.9219" fill="#F1F1F1" rx="67.6097" ry="15.9219" style="stroke:#181818;stroke-width:0.5;"/><text fill="#000000" font-family="sans-serif" font-size="14" lengthAdjust="spacing" textLength="86.2422" x="453.4886" y="167.6695">Save Recipe</text></g><g id="elem_Delete Recipe"><ellipse cx="674.3829" cy="163.7766" fill="#F1F1F1" rx="71.8829" ry="16.7766" style="stroke:#181818;stroke-width:0.5;"/><text fill="#000000" font-family="sans-serif" font-size="14" lengthAdjust="spacing" textLength="97.877" x="622.4445" y="167.5241">Delete Recipe</text></g><g id="elem_Share Recipe"><ellipse cx="851.4108" cy="163.8822" fill="#F1F1F1" rx="69.9108" ry="16.3822" style="stroke:#181818;stroke-width:0.5;"/><text fill="#000000" font-family="sans-serif" font-size="14" lengthAdjust="spacing" textLength="92.5859" x="802.1178" y="167.6297">Share Recipe</text></g><g id="elem_Toggle Theme"><ellipse cx="1029.7373" cy="163.9475" fill="#F1F1F1" rx="72.7373" ry="16.9475" style="stroke:#181818;stroke-width:0.5;"/><text fill="#000000" font-family="sans-serif" font-size="14" lengthAdjust="spacing" textLength="100.1328" x="976.6709" y="167.695">Toggle Theme</text></g><g id="elem_Install App"><ellipse cx="1200.3741" cy="164.0748" fill="#F1F1F1" rx="63.3741" ry="15.0748" style="stroke:#181818;stroke-width:0.5;"/><text fill="#000000" font-family="sans-serif" font-size="14" lengthAdjust="spacing" textLength="73.9443" x="1160.4019" y="167.8224">Install App</text></g><!--link User to Browse Recipes--><g id="link_User_Browse Recipes"><path d="M658.13,47.49 C595.5,58.96 365.22,101.55 176.5,141.5 C162.58,144.45 153.3894,146.4741 139.5094,149.6441 " fill="transparent" id="User-to-Browse Recipes" style="stroke:#181818;stroke-width:1;"/><polygon fill="#181818" points="133.66,150.98,143.3247,152.8757,138.5345,149.8667,141.5435,145.0765,133.66,150.98" style="stroke:#181818;stroke-width:1;"/></g><!--link User to Generate Random Meal--><g id="link_User_Generate Random Meal"><path d="M658.21,49.59 C605.86,65.96 445.8866,115.9795 357.7066,143.5495 " fill="transparent" id="User-to-Generate Random Meal" style="stroke:#181818;stroke-width:1;"/><polygon fill="#181818" points="351.98,145.34,361.7636,146.4721,356.7522,143.8479,359.3763,138.8366,351.98,145.34" style="stroke:#181818;stroke-width:1;"/></g><!--link User to Save Recipe--><g id="link_User_Save Recipe"><path d="M658.35,55.44 C626.62,76.92 561.1287,121.2766 525.6887,145.2666 " fill="transparent" id="User-to-Save Recipe" style="stroke:#181818;stroke-width:1;"/><polygon fill="#181818" points="520.72,148.63,530.4153,146.8974,524.8606,145.8272,525.9307,140.2725,520.72,148.63" style="stroke:#181818;stroke-width:1;"/></g><!--link User to Delete Recipe--><g id="link_User_Delete Recipe"><path d="M674.5,81.67 C674.5,103.52 674.5,124.06 674.5,140.74 " fill="transparent" id="User-to-Delete Recipe" style="stroke:#181818;stroke-width:1;"/><polygon fill="#181818" points="674.5,146.74,678.5,137.74,674.5,141.74,670.5,137.74,674.5,146.74" style="stroke:#181818;stroke-width:1;"/></g><!--link User to Share Recipe--><g id="link_User_Share Recipe"><path d="M690.52,55.23 C722.26,76.48 788.2041,120.6223 824.3841,144.8423 " fill="transparent" id="User-to-Share Recipe" style="stroke:#181818;stroke-width:1;"/><polygon fill="#181818" points="829.37,148.18,824.1163,139.8494,825.2151,145.3986,819.6659,146.4974,829.37,148.18" style="stroke:#181818;stroke-width:1;"/></g><!--link User to Toggle Theme--><g id="link_User_Toggle Theme"><path d="M690.68,49.9 C743.51,67.54 906.3486,121.8904 983.9786,147.8004 " fill="transparent" id="User-to-Toggle Theme" style="stroke:#181818;stroke-width:1;"/><polygon fill="#181818" points="989.67,149.7,982.3993,143.0564,984.9272,148.117,979.8666,150.6449,989.67,149.7" style="stroke:#181818;stroke-width:1;"/></g><!--link User to Install App--><g id="link_User_Install App"><path d="M690.72,47.76 C748.94,59.53 952.71,101.21 1119.5,141.5 C1133.08,144.78 1142.0643,147.0677 1155.2443,150.5977 " fill="transparent" id="User-to-Install App" style="stroke:#181818;stroke-width:1;"/><polygon fill="#181818" points="1161.04,152.15,1153.3813,145.9578,1156.2102,150.8564,1151.3116,153.6854,1161.04,152.15" style="stroke:#181818;stroke-width:1;"/></g><!--SRC=[IqmkoIzI22rEBUBY0f4Akhfs2XfEHVdbnQaAGQd9cGMfnPf8CkwfUQb5YIL0kSIybFnS1T_Kn1na-U34CfW-P66Nr9pK4cmImHc9HTZ4G_BJqtDI5K8oKdDHn3tpYaiISt8K70iAD040]--></g></svg>